<?xml version="1.0" encoding="UTF-8" standalone="no"?>
<!-- Created with Inkscape (http://www.inkscape.org/) -->

<svg
   xmlns:dc="http://purl.org/dc/elements/1.1/"
   xmlns:cc="http://creativecommons.org/ns#"
   xmlns:rdf="http://www.w3.org/1999/02/22-rdf-syntax-ns#"
   xmlns:svg="http://www.w3.org/2000/svg"
   xmlns="http://www.w3.org/2000/svg"
   xmlns:sodipodi="http://sodipodi.sourceforge.net/DTD/sodipodi-0.dtd"
   xmlns:inkscape="http://www.inkscape.org/namespaces/inkscape"
   inkscape:version="0.48.4 r9939"
   version="1.1"
   id="svg3148"
   height="800.00006"
   width="2000"
   sodipodi:docname="responsa-eu.svg"
   inkscape:export-filename="/home/tadeusz/Dokumenty/Radzimy/img/radzimy.co.png"
   inkscape:export-xdpi="13.499999"
   inkscape:export-ydpi="13.499999">
  <sodipodi:namedview
     id="base"
     pagecolor="#ffffff"
     bordercolor="#666666"
     borderopacity="1.0"
     inkscape:pageopacity="0.0"
     inkscape:pageshadow="2"
     inkscape:zoom="0.1767767"
     inkscape:cx="1285.3452"
     inkscape:cy="309.23553"
     inkscape:document-units="px"
     inkscape:current-layer="layer1"
     showgrid="false"
     showborder="true"
     inkscape:window-width="1280"
     inkscape:window-height="734"
     inkscape:window-x="0"
     inkscape:window-y="27"
     inkscape:window-maximized="1"
     showguides="true"
     inkscape:guide-bbox="true"
     fit-margin-top="0"
     fit-margin-left="0"
     fit-margin-right="0"
     fit-margin-bottom="0"
     borderlayer="false">
    <sodipodi:guide
       orientation="1,0"
       position="2000,1320"
       id="guide3143" />
  </sodipodi:namedview>
  <defs
     id="defs3150" />
  <metadata
     id="metadata3153">
    <rdf:RDF>
      <cc:Work
         rdf:about="">
        <dc:format>image/svg+xml</dc:format>
        <dc:type
           rdf:resource="http://purl.org/dc/dcmitype/StillImage" />
        <dc:title />
      </cc:Work>
    </rdf:RDF>
  </metadata>
  <g
     id="layer1"
     inkscape:groupmode="layer"
     inkscape:label="Layer 1"
     transform="translate(-1.3140268e-8,-252.36216)">
    <g
       inkscape:export-ydpi="11.98811"
       inkscape:export-xdpi="11.98811"
       inkscape:export-filename="/home/tadeusz/Dokumenty/Radzimy/logo.png"
       transform="matrix(1.0625,0,0,1.0656099,-21.249996,809.68649)"
       id="g2995">
      <path
         style="font-size:medium;font-style:normal;font-variant:normal;font-weight:normal;font-stretch:normal;text-indent:0;text-align:start;text-decoration:none;line-height:normal;letter-spacing:normal;word-spacing:normal;text-transform:none;direction:ltr;block-progression:tb;writing-mode:lr-tb;text-anchor:start;baseline-shift:baseline;color:#000000;fill:#404040;fill-opacity:1;stroke:none;stroke-width:30;marker:none;visibility:visible;display:inline;overflow:visible;enable-background:accumulate;font-family:Sans;-inkscape-font-specification:Sans"
         d="m 456.68387,-212.99718 -53.01953,0 c -29.16118,0 -53.01952,23.85835 -53.01952,53.01953 l 0,244.70551 c 0,29.1612 23.85834,53.0195 53.01952,53.0195 l 100.30377,0 c 6.69897,16.6754 28.72282,28.9823 54.95678,28.9823 26.30351,0 47.35381,-11.3416 56.86851,-28.9823 l 32.5765,0 c 26.1,0 47.9036,-19.1263 52.2038,-44.04697 l 107.1861,0 c 5.3425,0.004 10.4466,-3.90985 11.8289,-9.07047 0.6911,-2.58031 0.5063,-5.38693 -0.5171,-7.85437 -1.0235,-2.46742 -2.8796,-4.58081 -5.1942,-5.91434 l -112.488,-64.94892 0,-165.88994 c 0,-29.16118 -23.8584,-53.01953 -53.0195,-53.01953 l -150.90178,0 0,24.47055 150.90178,0 c 16.0277,0 28.5489,12.52121 28.5489,28.54898 l 0,172.95071 c 0,4.27349 2.4168,8.46695 6.1177,10.60391 l 79.0449,45.65287 -72.9273,0 c -3.2031,3.2e-4 -6.3864,1.31905 -8.6513,3.58399 -2.2649,2.26493 -3.5837,5.44819 -3.584,8.65129 l 0,3.26274 c 0,16.02778 -12.5212,28.549 -28.5489,28.549 l -27.1216,0 c -0.7585,-20.27536 -11.6259,-36.08894 -38.745,-55.95092 20.54,-0.39645 30.8102,-3.18752 39.1784,-10.32352 9.1289,-7.53244 14.4529,-19.80834 14.4529,-34.08034 0,-12.28977 -2.6513,-23.39582 -7.5961,-32.11759 -11.4111,-20.21867 -30.4386,-39.64301 -55.54304,-56.69011 -26.2456,-18.23645 -39.56073,-33.70318 -39.56073,-47.18228 0,-16.25423 12.94413,-27.35094 31.58231,-27.35094 10.65038,0 20.51956,3.97439 20.51956,8.33528 0,1.58577 -2.261,4.34804 -5.68429,7.51959 -6.84667,5.55023 -10.27253,11.5027 -10.27253,17.05292 0,10.704 11.78292,22.60977 22.81372,22.60977 12.9326,0 24.7254,-12.30553 24.7254,-25.3882 0,-21.01155 -25.4918,-39.25484 -55.16068,-39.25484 -33.09227,0 -56.66462,21.41133 -56.66462,51.5411 0,19.02933 6.8409,29.34415 38.03131,57.88814 l -7.2392,0 c -30.0493,0 -46.77444,17.03573 -46.77444,48.35483 0,26.56177 10.27153,40.04444 63.90382,85.23909 l 21.69213,18.25095 c 10.65038,9.11822 14.07058,15.44347 14.07058,27.73327 0,18.6329 -9.89325,28.1666 -30.05291,28.1666 -13.31298,0 -25.87251,-5.5493 -25.87251,-11.496 0,-1.5858 1.52572,-3.1896 5.7098,-5.9647 8.74853,-5.5502 11.77645,-10.302 11.77645,-16.6451 0,-11.89332 -11.38698,-22.20191 -24.69996,-22.20191 -8.63453,0 -16.15147,4.67102 -20.36664,11.95491 l -101.80769,0 c -16.02777,0 -28.54897,-12.52122 -28.54897,-28.549 l 0,-244.70551 c 0,-16.02777 12.5212,-28.54898 28.54897,-28.54898 l 53.01953,0 z m 81.69595,172.00758 c 11.41113,0 27.37976,10.71023 52.48428,35.68622 12.5522,12.28977 16.3646,19.80772 16.3646,30.51172 0,13.4791 -8.7515,22.99212 -20.1627,22.99212 -11.4111,0 -19.3914,-5.14135 -42.59403,-26.1529 -22.82225,-20.6151 -26.63721,-26.56324 -26.63721,-40.83523 0,-12.68622 8.75357,-22.20193 20.54506,-22.20193 z"
         id="path4238"
         inkscape:connector-curvature="0"
         sodipodi:nodetypes="csssscscsccssccssccssccccscsscccsccssscssssscssccssscsscssssccscsscss" />
      <path
         style="font-size:medium;font-style:normal;font-variant:normal;font-weight:normal;font-stretch:normal;text-indent:0;text-align:start;text-decoration:none;line-height:normal;letter-spacing:normal;word-spacing:normal;text-transform:none;direction:ltr;block-progression:tb;writing-mode:lr-tb;text-anchor:start;baseline-shift:baseline;color:#000000;fill:#7f7f7f;fill-opacity:1;stroke:none;stroke-width:30;marker:none;visibility:visible;display:inline;overflow:visible;enable-background:accumulate;font-family:Sans;-inkscape-font-specification:Sans"
         d="m 279.06846,-465.4262 c -34.4315,0 -60.60244,16.08803 -68.79793,40.35091 l -18.68429,0 c -29.16118,0 -53.01953,23.85835 -53.01953,53.01953 l 0,165.91543 -112.48806,64.94892 c -2.30222,1.33915 -4.14552,3.45157 -5.16052,5.91395 -1.01501,2.46239 -1.1957,5.26013 -0.50587,7.83262 1.37966,5.14498 6.4573,9.05193 11.78403,9.06712 l 107.18611,0 c 4.30014,24.92062 26.10379,44.047 52.20384,44.047 l 150.90173,0 0,-24.47056 -150.90173,0 c -16.02777,0 -28.54897,-12.5212 -28.54897,-28.54897 l 0,-3.26274 c -3.3e-4,-3.2031 -1.31906,-6.38636 -3.58399,-8.65129 -2.26494,-2.26493 -5.44819,-3.58367 -8.65129,-3.58399 l -72.92734,0 79.04498,-45.65287 c 3.70082,-2.13695 6.12013,-6.33042 6.11764,-10.6039 l 0,-172.95072 c 0,-16.02777 12.5212,-28.54897 28.54897,-28.54897 l 16.77252,0 c 2.74585,13.3268 12.55055,22.38035 25.08231,22.38035 14.4541,0 23.96075,-10.29782 23.96075,-25.3627 0,-7.92889 -1.89447,-12.68125 -8.36077,-20.2137 -4.56445,-5.15377 -5.70979,-7.53162 -5.70979,-11.49606 0,-9.51466 9.50269,-15.88037 23.19604,-15.88037 20.15965,0 31.93917,19.03267 31.93917,51.5411 0,20.6151 -3.78695,34.50663 -16.3392,59.08619 -9.1289,18.23644 -12.18429,27.33871 -12.18429,38.43915 0,4.36089 0.004,6.35762 0.7647,18.25095 l 11.41959,0 c 0,-28.94043 3.03072,-34.49938 26.99408,-49.9607 34.61375,-22.20089 46.03522,-38.46093 46.03522,-65.81559 0,-0.32698 -0.0215,-0.64348 -0.0254,-0.96862 l 81.16066,0 c 16.02777,0 28.54897,12.5212 28.54897,28.54897 0,81.5685 0,163.13701 0,244.70551 0,16.02777 -12.5212,28.54897 -28.54897,28.54897 l -53.01957,0 0,24.47056 53.01957,0 c 29.16118,0 53.01952,-23.85835 53.01952,-53.01953 0,-81.5685 0,-163.13701 0,-244.70551 0,-29.16118 -23.85834,-53.01953 -53.01952,-53.01953 l -85.92732,0 C 340.09826,-450.08776 314.0393,-465.4262 279.0685,-465.4262 z m -2.26863,211.28791 c -17.49706,0 -32.34701,15.47564 -32.34701,33.31563 0,19.02933 14.08921,33.69799 32.34701,33.69799 17.87744,0 31.93917,-14.68275 31.93917,-33.31563 0,-18.23645 -14.4421,-33.69799 -31.93917,-33.69799 z"
         id="path4230"
         inkscape:connector-curvature="0"
         sodipodi:nodetypes="scssccssccsccsscsccccsscsscssscscccscsccsccsccscssssss" />
      <path
         style="font-size:medium;font-style:normal;font-variant:normal;font-weight:normal;font-stretch:normal;text-indent:0;text-align:start;text-decoration:none;line-height:normal;letter-spacing:normal;word-spacing:normal;text-transform:none;direction:ltr;block-progression:tb;writing-mode:lr-tb;text-anchor:start;baseline-shift:baseline;color:#000000;fill:#999999;fill-opacity:1;stroke:none;stroke-width:30;marker:none;visibility:visible;display:inline;overflow:visible;enable-background:accumulate;font-family:Sans;-inkscape-font-specification:Sans"
         d="m 421.78785,-523.00847 c -1.44283,0.004 -2.89004,0.004 -4.33333,0.0255 -88.11098,-0.18149 -174.79377,33.49169 -241.59571,90.28614 8.56731,-2.26361 17.59133,-3.02516 26.30585,-2.3451 2.30375,1.30937 1.97173,-0.99547 2.59999,-2.52352 14.64134,-25.61522 45.10233,-38.18334 73.81949,-37.69994 6.837,-0.18363 13.81194,0.35979 20.67252,1.60588 38.39315,-14.29503 79.27042,-21.88116 120.36452,-21.71762 121.25157,-1.05045 240.41132,66.92766 300.47792,172.13503 51.833,88.08952 62.3971,200.18121 25.949,296.09367 -4.6039,12.46461 -9.9456,24.63749 -15.9568,36.47641 l 23.9353,13.86665 c 32.8364,-64.13776 47.3409,-137.68792 39.2548,-209.65656 -9.4243,-91.87089 -53.9581,-180.21361 -123.2704,-241.06041 -67.517,-60.34575 -157.3252,-95.72831 -248.22315,-95.48613 z m -290.99563,135.86254 c -12.25582,14.76171 -23.36082,30.49003 -33.08622,47.10581 -31.9758,53.20973 -50.0022,114.62772 -52.7391,176.64679 9.5428,-5.68978 19.1523,-11.26084 28.8038,-16.77253 1.118,-11.78859 2.872,-23.53231 5.251,-35.15092 8.5121,-43.50655 25.6203,-85.24322 49.75679,-122.37825 l 0,-17.46075 c -0.98241,-10.59076 -0.58323,-21.61648 2.01373,-31.99015 z M 74.5354,-108.69146 c -9.3192,0.0409 -18.6464,0.19795 -27.9627,0.15294 2.14,20.62788 6.0304,41.0706 11.7255,61.04893 25.2936,91.66632 86.59421,172.97705 168.54092,221.50945 78.03896,47.16064 174.30436,64.81044 264.20548,46.77454 57.57767,-11.0197 112.2972,-35.94804 158.5998,-71.65294 -9.1883,0.6412 -18.5482,0.2472 -27.4529,-0.1274 -12.9905,18.2631 -35.3477,27.877 -57.40387,29.0588 -6.78848,0.4029 -13.7829,0.097 -20.64703,-1.0197 -77.18597,29.42404 -165.23257,30.74854 -242.81924,1.9883 C 224.20061,151.25846 157.66334,95.3683 117.6138,23.78089 94.4712,-16.8169 79.848,-62.22287 74.5354,-108.69146 z M 705.9011,49.9083 c -1.7865,2.58506 -3.6,5.1618 -5.4549,7.69803 6.4255,-0.0697 12.9007,0.24987 19.2196,0.2549 -4.5411,-2.71685 -9.151,-5.32229 -13.7647,-7.95293 z"
         id="path24"
         inkscape:connector-curvature="0" />
    </g>
    <g
       transform="matrix(0.95454542,0,0,0.95454542,317.36212,47.325891)"
       id="g3183">
      <g
         style="font-size:93.41304779px;font-style:normal;font-variant:normal;font-weight:600;font-stretch:normal;text-align:end;line-height:125%;letter-spacing:20.88607597px;word-spacing:0px;writing-mode:lr-tb;text-anchor:end;fill:#999999;fill-opacity:1;stroke:none;font-family:Signika Negative;-inkscape-font-specification:Signika Negative Semi-Bold"
         id="text3175">
        <path
           d="m 1313.5643,721.94945 c 4.4215,4.42159 6.6323,10.80481 6.6324,19.14968 -10e-5,8.34491 -2.2109,14.72813 -6.6324,19.14967 -3.5497,3.5497 -8.2515,5.32455 -14.1053,5.32455 -5.7917,0 -10.4623,-1.77485 -14.012,-5.32455 -4.4215,-4.42154 -6.6323,-10.80476 -6.6323,-19.14967 0,-8.34487 2.2108,-14.72809 6.6323,-19.14968 3.5497,-3.54965 8.2203,-5.32449 14.012,-5.32454 5.8538,5e-5 10.5556,1.77489 14.1053,5.32454 m -14.1053,3.45629 c -5.8539,3e-5 -8.7809,5.23116 -8.7809,15.69339 0,10.46227 2.927,15.6934 8.7809,15.69339 5.9161,1e-5 8.8742,-5.23112 8.8742,-15.69339 0,-10.46223 -2.9581,-15.69336 -8.8742,-15.69339"
           id="path3060"
           inkscape:connector-curvature="0" />
        <path
           d="m 1416.4461,716.62491 c 5.0443,5e-5 8.9677,2.17968 11.7701,6.53891 2.8023,4.29704 4.2035,10.21319 4.2036,17.74848 -10e-5,7.53534 -1.7749,13.45149 -5.3246,17.74848 -3.5497,4.297 -7.8467,6.4455 -12.891,6.4455 -3.2383,0 -6.5389,-0.87185 -9.9018,-2.61556 l 0,14.75926 c 0,2.61555 -0.467,4.45267 -1.4012,5.51137 -0.9341,1.12093 -2.5844,1.68141 -4.9508,1.68143 l -4.3905,0 -0.6538,-0.65389 0,-65.76278 0.6538,-0.56048 3.2695,0 c 3.2383,4e-5 5.4491,1.52579 6.6323,4.57724 3.612,-3.61193 7.9401,-5.41791 12.9844,-5.41796 m -3.2694,9.52813 c -3.4252,4e-5 -6.3833,1.68147 -8.8743,5.04431 l 0,22.13889 c 2.9892,1.93054 5.6982,2.89581 8.127,2.8958 2.491,10e-6 4.4526,-1.33891 5.885,-4.01676 1.4946,-2.7401 2.2419,-6.57003 2.2419,-11.4898 0,-4.982 -0.685,-8.65625 -2.0551,-11.02274 -1.3701,-2.36643 -3.1449,-3.54966 -5.3245,-3.5497"
           id="path3062"
           inkscape:connector-curvature="0" />
        <path
           d="m 1460.8913,723.35065 c 0.2491,-1.05864 0.7473,-2.1796 1.4946,-3.36287 0.8096,-1.24546 1.6191,-2.14845 2.4287,-2.70898 4.8575,0.74735 8.1269,3.5186 9.8084,8.31376 2.491,-5.54246 6.5078,-8.31371 12.0503,-8.31376 1.4323,5e-5 3.2383,0.21801 5.4179,0.65389 0,4.04794 -0.9341,7.65991 -2.8024,10.83592 -0.9341,-0.24907 -2.3353,-0.4359 -4.2035,-0.56048 -3.7989,3e-5 -6.8504,2.02398 -9.1545,6.07185 l 0,29.98558 c -1.7437,0.31138 -3.6431,0.46707 -5.6982,0.46707 -2.0551,0 -4.0168,-0.15569 -5.885,-0.46707 l 0,-31.29337 c 0,-4.54606 -1.1521,-7.75324 -3.4563,-9.62154"
           id="path3064"
           inkscape:connector-curvature="0" />
        <path
           d="m 1556.4231,759.03443 c -0.3114,1.05869 -0.8719,2.17964 -1.6814,3.36287 -0.7473,1.12096 -1.5258,1.99281 -2.3353,2.61557 -3.8611,-0.43593 -6.6947,-2.24191 -8.5006,-5.41796 -4.1102,3.98563 -8.5629,5.97844 -13.3581,5.97844 -4.7952,0 -8.4072,-1.4012 -10.8359,-4.20359 -2.4287,-2.80239 -3.6431,-6.0407 -3.6431,-9.71496 0,-5.23111 1.6814,-9.15445 5.0443,-11.77004 3.4251,-2.67782 7.7844,-4.01673 13.0778,-4.01676 2.8647,3e-5 5.5736,0.12458 8.127,0.37365 l 0,-2.80239 c -10e-5,-4.91972 -2.3665,-7.37959 -7.0994,-7.37963 -3.3629,4e-5 -8.127,1.12099 -14.2922,3.36287 -1.806,-1.9305 -2.8336,-4.70175 -3.0827,-8.31376 6.7258,-2.80235 13.4515,-4.20354 20.1773,-4.20359 4.6706,5e-5 8.4694,1.30783 11.3964,3.92335 2.9269,2.6156 4.3903,6.57008 4.3904,11.86345 l 0,19.05627 c -1e-4,3.42515 0.8718,5.85389 2.6155,7.28621 m -23.4466,-2.33532 c 3.2383,0 6.352,-1.4946 9.3413,-4.48383 l 0,-8.31376 c -2.1797,-0.24908 -4.5462,-0.37363 -7.0994,-0.37365 -2.5533,2e-5 -4.4839,0.65391 -5.7916,1.96167 -1.3078,1.3078 -1.9617,2.9581 -1.9617,4.95089 0,1.99283 0.4982,3.54971 1.4946,4.67066 0.9964,1.05868 2.3353,1.58802 4.0168,1.58802"
           id="path3066"
           inkscape:connector-curvature="0" />
        <path
           d="M 1591.0409,758.84761 1581.6062,718.68 c 2.2419,-0.99636 4.297,-1.49457 6.1653,-1.49461 1.8682,4e-5 3.2071,0.40483 4.0167,1.21437 0.8719,0.74735 1.4946,1.96172 1.8683,3.64311 l 3.6431,17.74848 c 1.3078,5.79162 2.2419,10.83592 2.8024,15.13291 0.1245,0.49821 0.3736,0.74731 0.7473,0.7473 l 6.8192,-37.36522 c 1.4945,-0.3736 3.7987,-0.56043 6.9125,-0.56047 3.1138,4e-5 5.3868,0.18687 6.8192,0.56047 l 6.6323,36.61792 c 0.1245,0.49821 0.3736,0.74731 0.7473,0.7473 1.6191,-8.5317 2.6467,-13.82511 3.0826,-15.88021 l 4.7641,-21.85866 c 1.37,-0.31133 3.1448,-0.46702 5.3245,-0.46706 2.2419,4e-5 3.9856,0.31142 5.2312,0.93413 l 0.3736,0.65389 -11.2095,45.21191 c -1.8684,0.31138 -4.3905,0.46707 -7.5665,0.46707 -3.1138,0 -5.2623,-0.37365 -6.4455,-1.12096 -1.121,-0.7473 -1.8683,-2.27305 -2.2419,-4.57724 l -2.2419,-11.86345 c -1.0587,-6.16524 -2.0863,-12.39277 -3.0826,-18.68261 l -0.5605,0 c -0.5605,4.1102 -1.6504,10.3066 -3.2695,18.58919 l -3.2694,17.188 c -2.1174,0.31138 -4.733,0.46707 -7.8467,0.46707 -3.0515,0 -5.1378,-0.37365 -6.2587,-1.12096 -1.121,-0.80958 -1.9617,-2.3976 -2.5222,-4.76406"
           id="path3068"
           inkscape:connector-curvature="0" />
        <path
           d="m 1691.0435,726.99376 0,37.2718 c -1.7438,0.31138 -3.6432,0.46707 -5.6982,0.46707 -2.0551,0 -4.0168,-0.15569 -5.885,-0.46707 l 0,-32.9748 c -10e-5,-3.36284 -1.4012,-5.04427 -4.2036,-5.04431 l -1.121,0 c -0.3114,-1.05864 -0.4671,-2.39756 -0.4671,-4.01676 0,-1.61911 0.1557,-3.02031 0.4671,-4.20358 2.2419,-0.24906 4.515,-0.37361 6.8192,-0.37366 l 1.4946,0 c 2.6778,5e-5 4.764,0.84077 6.2586,2.52216 1.5569,1.68147 2.3354,3.95452 2.3354,6.81915 m -13.5449,-17.46824 c -0.6228,-1.43228 -0.9342,-2.95802 -0.9342,-4.57724 0,-1.68138 0.3114,-3.23826 0.9342,-4.67065 1.6191,-0.87179 3.6119,-1.30772 5.9784,-1.30779 2.4287,7e-5 4.3593,0.436 5.7916,1.30779 0.6228,1.43239 0.9341,2.98927 0.9342,4.67065 -10e-5,1.61922 -0.3114,3.14496 -0.9342,4.57724 -1.4323,0.87191 -3.4563,1.30783 -6.0718,1.30778 -2.5533,5e-5 -4.4527,-0.43587 -5.6982,-1.30778"
           id="path3070"
           inkscape:connector-curvature="0" />
        <path
           d="m 1760.0606,744.83565 -26.1556,0 c 0.1868,3.67426 0.9964,6.53893 2.4287,8.594 1.4946,1.99282 4.079,2.98923 7.7533,2.98922 3.6742,10e-6 7.7533,-1.08981 12.2371,-3.26946 1.7437,1.68145 2.8646,4.04791 3.3629,7.09939 -4.9821,3.5497 -10.9917,5.32455 -18.0287,5.32455 -6.9749,0 -11.9881,-2.27305 -15.0395,-6.81916 -3.0515,-4.54609 -4.5773,-10.4311 -4.5773,-17.65506 0,-7.22391 1.6815,-13.10893 5.0443,-17.65507 3.3629,-4.54605 8.1581,-6.8191 14.3856,-6.81915 6.2898,5e-5 11.1162,1.89944 14.4791,5.6982 3.3628,3.73656 5.0442,8.46948 5.0443,14.19878 -10e-5,2.86469 -0.3115,5.63594 -0.9342,8.31376 m -18.0287,-19.80357 c -5.1066,4e-5 -7.8467,3.86111 -8.2203,11.58322 l 16.2538,0 0,-1.12095 c 0,-3.11374 -0.6539,-5.63589 -1.9616,-7.56646 -1.3078,-1.9305 -3.3318,-2.89577 -6.0719,-2.89581"
           id="path3072"
           inkscape:connector-curvature="0" />
      </g>
      <g
         transform="matrix(1.0476191,0,0,1.0476191,-356.04604,209.42878)"
         style="font-size:40px;font-style:normal;font-weight:normal;line-height:125%;letter-spacing:0px;word-spacing:0px;fill:#000000;fill-opacity:1;stroke:none;font-family:Sans"
         id="text3015" />
      <g
         style="font-size:211.71136475px;font-style:normal;font-variant:normal;font-weight:600;font-stretch:normal;text-align:start;line-height:125%;letter-spacing:0px;word-spacing:0px;writing-mode:lr-tb;text-anchor:start;fill:#404040;fill-opacity:1;stroke:none;font-family:Signika Negative;-inkscape-font-specification:Signika Negative Semi-Bold"
         id="text3169-0">
        <path
           d="m 740.13772,527.71176 c -1.1e-4,9.45653 -2.61122,17.64269 -7.83332,24.55852 -5.08117,6.77483 -11.36194,11.50305 -18.84231,14.18466 6.91581,2.39945 12.06745,8.53908 15.45493,18.41889 l 8.25674,22.22969 c 2.68156,7.1982 5.99837,12.27927 9.95044,15.24322 -3.95207,5.50449 -10.02112,8.25674 -18.20718,8.25674 -4.65775,0 -8.18627,-1.1997 -10.58557,-3.59909 -2.25834,-2.54053 -4.37546,-6.70419 -6.35134,-12.49097 l -9.52701,-26.0405 c -1.83491,-5.08103 -4.2343,-8.9624 -7.19819,-11.64413 -2.82288,-2.68162 -7.12768,-4.02246 -12.91439,-4.02251 l -13.97295,0 0,56.10351 c -3.52856,0.7057 -8.04507,1.05856 -13.54953,1.05856 -5.36338,0 -9.73874,-0.35286 -13.1261,-1.05856 l 0,-143.54031 1.48198,-1.27026 c 22.30022,-0.56442 38.10799,-0.8467 47.42334,-0.84685 15.102,1.5e-4 27.09896,3.81095 35.99094,11.43241 9.0329,7.62174 13.54941,18.63072 13.54952,33.02698 m -71.77015,-23.71168 0,47.63506 c 10.16209,-0.2822 17.00742,-0.42334 20.536,-0.42342 15.66656,8e-5 23.49988,-7.83324 23.49996,-23.49996 -8e-5,-15.66653 -7.8334,-23.49984 -23.49996,-23.49996 -9.17421,1.2e-4 -16.01954,-0.0704 -20.536,-0.21172"
           style="line-height:125%;letter-spacing:0.29631141;fill:#404040;font-family:Signika Negative;-inkscape-font-specification:Signika Negative Semi-Bold"
           id="path3076"
           inkscape:connector-curvature="0" />
        <path
           d="m 846.60067,584.87383 -59.27918,0 c 0.42338,8.32735 2.25821,14.81982 5.50449,19.47744 3.38734,4.51653 9.24468,6.77478 17.57204,6.77477 8.32725,10e-6 17.57197,-2.46995 27.73419,-7.4099 3.95186,3.81082 6.49239,9.17417 7.62161,16.09006 -11.29135,8.04503 -24.91144,12.06755 -40.86029,12.06755 -15.80782,0 -27.16965,-5.15164 -34.08553,-15.45493 -6.91592,-10.30326 -10.37387,-23.64107 -10.37386,-40.01345 -10e-6,-16.37228 3.81079,-29.71008 11.43242,-40.01345 7.62158,-10.30318 18.48942,-15.45482 32.60355,-15.45493 14.25516,1.1e-4 25.19357,4.30491 32.81526,12.9144 7.62151,8.46854 11.43231,19.19524 11.43241,32.18012 -10e-5,6.49254 -0.7058,12.77331 -2.11711,18.84232 m -40.8603,-44.88281 c -11.57359,9e-5 -17.78379,8.75081 -18.6306,26.25221 l 36.83778,0 0,-2.54054 c -7e-5,-7.05697 -1.48205,-12.77317 -4.44594,-17.14862 -2.96402,-4.37528 -7.5511,-6.56296 -13.76124,-6.56305"
           style="line-height:125%;letter-spacing:0.29631141;fill:#404040;font-family:Signika Negative;-inkscape-font-specification:Signika Negative Semi-Bold"
           id="path3078"
           inkscape:connector-curvature="0" />
        <path
           d="m 863.42039,621.28818 c 0.14113,-2.82281 0.98798,-5.99847 2.54054,-9.52701 1.55254,-3.66964 3.38737,-6.49246 5.50449,-8.46846 11.29125,6.06908 21.1711,9.10361 29.63959,9.10359 5.08103,2e-5 9.03297,-0.98797 11.85584,-2.96396 2.9639,-1.97595 4.44588,-4.58705 4.44594,-7.83332 -6e-5,-5.50446 -3.952,-9.73868 -11.85584,-12.70268 l -11.85584,-4.44594 c -17.78377,-6.63357 -26.67564,-16.86627 -26.67563,-30.69814 -1e-5,-9.87978 3.59908,-17.78367 10.79728,-23.71168 7.19816,-6.06895 16.72516,-9.10348 28.58104,-9.10359 11.99691,1.1e-4 23.92331,2.75236 35.77922,8.25675 0.14105,3.24633 -0.56465,6.70428 -2.11712,10.37385 -1.41149,3.66975 -3.24632,6.422 -5.50449,8.25675 -10.4445,-4.79871 -19.9715,-7.1981 -28.58104,-7.19819 -3.95199,9e-5 -7.12765,0.9175 -9.52701,2.75225 -2.25829,1.83491 -3.38742,4.30488 -3.38738,7.4099 -4e-5,4.51658 3.7402,8.11567 11.2207,10.79728 l 12.9144,4.86936 c 18.2071,6.77482 27.31068,17.64266 27.31076,32.60355 -8e-5,10.02102 -3.81089,17.99548 -11.43241,23.92338 -7.48054,5.92792 -17.92495,8.89188 -31.33328,8.89188 -13.26728,0 -26.04052,-3.52852 -38.31976,-10.58557"
           style="line-height:125%;letter-spacing:0.29631141;fill:#404040;font-family:Signika Negative;-inkscape-font-specification:Signika Negative Semi-Bold"
           id="path3080"
           inkscape:connector-curvature="0" />
        <path
           d="m 1019.6322,520.93699 c 11.4323,1.1e-4 20.3242,4.94004 26.6756,14.8198 6.3513,9.73881 9.5269,23.14718 9.527,40.22516 -10e-5,17.07808 -4.0226,30.48646 -12.0675,40.22516 -8.0451,9.73872 -17.7838,14.60808 -29.2162,14.60808 -7.3394,0 -14.81983,-1.97597 -22.44139,-5.92792 l 0,33.4504 c -4e-5,5.92788 -1.05859,10.09154 -3.17567,12.49097 -2.11715,2.54049 -5.85738,3.81076 -11.2207,3.8108 l -9.95043,0 -1.48198,-1.48197 0,-149.04481 1.48198,-1.27026 7.40989,0 c 7.3393,10e-5 12.3498,3.45805 15.03151,10.37385 8.18613,-8.18607 17.99539,-12.27915 29.42789,-12.27926 m -7.4099,21.59456 c -7.7628,9e-5 -14.467,3.81089 -20.11259,11.43242 l 0,50.17559 c 6.77472,4.37539 12.91439,6.56307 18.41889,6.56305 5.6456,2e-5 10.0915,-3.03451 13.3378,-9.10359 3.3873,-6.21016 5.081,-14.89032 5.0811,-26.04049 -10e-5,-11.29121 -1.5526,-19.61852 -4.6577,-24.98194 -3.1051,-5.36328 -7.1276,-8.04495 -12.0675,-8.04504"
           style="line-height:125%;letter-spacing:0.29631141;fill:#404040;font-family:Signika Negative;-inkscape-font-specification:Signika Negative Semi-Bold"
           id="path3082"
           inkscape:connector-curvature="0" />
        <path
           d="m 1151.4443,533.00454 c 10.0209,10.02109 15.0314,24.48802 15.0315,43.40083 -10e-5,18.91292 -5.0106,33.37985 -15.0315,43.40083 -8.0451,8.04503 -18.7013,12.06755 -31.9684,12.06755 -13.1262,0 -23.7117,-4.02252 -31.7567,-12.06755 -10.0211,-10.02098 -15.0316,-24.48791 -15.0315,-43.40083 -10e-5,-18.91281 5.0104,-33.37974 15.0315,-43.40083 8.045,-8.04493 18.6305,-12.06744 31.7567,-12.06755 13.2671,1.1e-4 23.9233,4.02262 31.9684,12.06755 m -31.9684,7.83332 c -13.2673,9e-5 -19.9009,11.85591 -19.9009,35.56751 0,23.7117 6.6336,35.56753 19.9009,35.56751 13.4083,2e-5 20.1125,-11.85581 20.1125,-35.56751 0,-23.7116 -6.7042,-35.56742 -20.1125,-35.56751"
           style="line-height:125%;letter-spacing:0.29631141;fill:#404040;font-family:Signika Negative;-inkscape-font-specification:Signika Negative Semi-Bold"
           id="path3084"
           inkscape:connector-curvature="0" />
        <path
           d="m 1276.5412,557.98648 0,46.99993 c -10e-5,8.60961 1.4113,15.24322 4.2342,19.90086 -4.6578,3.66967 -9.88,5.5045 -15.6667,5.5045 -5.6457,0 -9.5271,-1.34084 -11.6441,-4.02252 -2.1172,-2.68167 -3.1757,-6.84532 -3.1757,-12.49097 l 0,-50.3873 c 0,-6.35127 -0.8469,-10.86778 -2.5405,-13.54953 -1.6938,-2.82274 -4.7283,-4.23414 -9.1036,-4.23423 -8.0451,9e-5 -15.455,3.52861 -22.2297,10.58557 l 0,72.617 c -3.952,0.7057 -8.2568,1.05856 -12.9144,1.05856 -4.6576,0 -9.1036,-0.35286 -13.3378,-1.05856 l 0,-104.79713 1.482,-1.27026 9.7387,0 c 8.045,10e-5 12.8438,4.23433 14.3964,12.70268 10.3032,-9.03292 20.5359,-13.54942 30.6981,-13.54953 10.3032,1.1e-4 17.8543,3.31692 22.6532,9.95043 4.9398,6.63372 7.4098,15.31388 7.4099,26.0405"
           style="line-height:125%;letter-spacing:0.29631141;fill:#404040;font-family:Signika Negative;-inkscape-font-specification:Signika Negative Semi-Bold"
           id="path3086"
           inkscape:connector-curvature="0" />
        <path
           d="m 1296.7118,621.28818 c 0.1412,-2.82281 0.988,-5.99847 2.5406,-9.52701 1.5525,-3.66964 3.3873,-6.49246 5.5045,-8.46846 11.2912,6.06908 21.1711,9.10361 29.6396,9.10359 5.081,2e-5 9.0329,-0.98797 11.8558,-2.96396 2.9639,-1.97595 4.4459,-4.58705 4.4459,-7.83332 0,-5.50446 -3.952,-9.73868 -11.8558,-12.70268 l -11.8558,-4.44594 c -17.7838,-6.63357 -26.6757,-16.86627 -26.6757,-30.69814 0,-9.87978 3.5991,-17.78367 10.7973,-23.71168 7.1982,-6.06895 16.7252,-9.10348 28.581,-9.10359 11.997,1.1e-4 23.9234,2.75236 35.7793,8.25675 0.141,3.24633 -0.5647,6.70428 -2.1172,10.37385 -1.4114,3.66975 -3.2463,6.422 -5.5044,8.25675 -10.4445,-4.79871 -19.9715,-7.1981 -28.5811,-7.19819 -3.952,9e-5 -7.1276,0.9175 -9.527,2.75225 -2.2583,1.83491 -3.3874,4.30488 -3.3874,7.4099 0,4.51658 3.7402,8.11567 11.2207,10.79728 l 12.9144,4.86936 c 18.2071,6.77482 27.3107,17.64266 27.3108,32.60355 -10e-5,10.02102 -3.8109,17.99548 -11.4324,23.92338 -7.4806,5.92792 -17.925,8.89188 -31.3333,8.89188 -13.2673,0 -26.0405,-3.52852 -38.3198,-10.58557"
           style="line-height:125%;letter-spacing:0.29631141;fill:#404040;font-family:Signika Negative;-inkscape-font-specification:Signika Negative Semi-Bold"
           id="path3088"
           inkscape:connector-curvature="0" />
        <path
           d="m 1484.0452,617.05395 c -0.7058,2.39941 -1.976,4.93994 -3.8108,7.62161 -1.6938,2.54054 -3.458,4.51651 -5.2928,5.92792 -8.7508,-0.98799 -15.1727,-5.08107 -19.2657,-12.27926 -9.3153,9.03302 -19.4069,13.54953 -30.2747,13.54953 -10.8679,0 -19.0541,-3.17567 -24.5585,-9.52701 -5.5045,-6.35133 -8.2568,-13.69065 -8.2568,-22.01798 0,-11.8558 3.8108,-20.74767 11.4324,-26.67564 7.7628,-6.06899 17.6426,-9.10352 29.6396,-9.10358 6.4925,6e-5 12.6321,0.28234 18.4189,0.84684 l 0,-6.35134 c 0,-11.15005 -5.3634,-16.72511 -16.09,-16.7252 -7.6217,9e-5 -18.419,2.54062 -32.3919,7.62161 -4.0931,-4.37528 -6.4219,-10.65605 -6.9865,-18.84231 15.2432,-6.35124 30.4864,-9.5269 45.7297,-9.52701 10.5855,1.1e-4 19.1951,2.96406 25.8288,8.89188 6.6335,5.92801 9.9503,14.89044 9.9504,26.88734 l 0,43.18912 c -10e-5,7.76277 1.9759,13.26726 5.9279,16.51348 m -53.1395,-5.29278 c 7.3393,2e-5 14.3963,-3.38736 21.1711,-10.16215 l 0,-18.84231 c -4.94,-0.56451 -10.3033,-0.8468 -16.09,-0.84684 -5.7869,4e-5 -10.1622,1.48202 -13.1261,4.44594 -2.964,2.96399 -4.446,6.70422 -4.446,11.2207 0,4.51653 1.1291,8.04505 3.3874,10.58557 2.2582,2.39941 5.2927,3.59911 9.1036,3.59909"
           style="line-height:125%;letter-spacing:0.29631141;fill:#404040;font-family:Signika Negative;-inkscape-font-specification:Signika Negative Semi-Bold"
           id="path3090"
           inkscape:connector-curvature="0" />
        <path
           d="m 1507.1567,627.63952 c -1.4114,-2.82281 -2.1171,-6.56304 -2.1171,-11.2207 0,-4.79877 0.7057,-8.68015 2.1171,-11.64413 3.8108,-2.11708 8.6802,-3.17564 14.6081,-3.17567 5.9279,3e-5 10.6561,1.05859 14.1847,3.17567 1.4114,2.96398 2.1171,6.84536 2.1171,11.64413 0,4.65766 -0.7057,8.39789 -2.1171,11.2207 -3.1051,2.11711 -7.8334,3.17567 -14.1847,3.17567 -6.3513,0 -11.2207,-1.05856 -14.6081,-3.17567"
           style="line-height:125%;letter-spacing:0.29631141;fill:#404040;font-family:Signika Negative;-inkscape-font-specification:Signika Negative Semi-Bold"
           id="path3092"
           inkscape:connector-curvature="0" />
        <path
           d="m 1644.9563,584.87383 -59.2792,0 c 0.4234,8.32735 2.2582,14.81982 5.5045,19.47744 3.3873,4.51653 9.2447,6.77478 17.572,6.77477 8.3273,10e-6 17.572,-2.46995 27.7342,-7.4099 3.9519,3.81082 6.4924,9.17417 7.6216,16.09006 -11.2913,8.04503 -24.9114,12.06755 -40.8603,12.06755 -15.8078,0 -27.1696,-5.15164 -34.0855,-15.45493 -6.9159,-10.30326 -10.3738,-23.64107 -10.3738,-40.01345 0,-16.37228 3.8108,-29.71008 11.4324,-40.01345 7.6216,-10.30318 18.4894,-15.45482 32.6035,-15.45493 14.2552,1.1e-4 25.1936,4.30491 32.8153,12.9144 7.6215,8.46854 11.4323,19.19524 11.4324,32.18012 -10e-5,6.49254 -0.7058,12.77331 -2.1171,18.84232 m -40.8603,-44.88281 c -11.5736,9e-5 -17.7838,8.75081 -18.6306,26.25221 l 36.8378,0 0,-2.54054 c -10e-5,-7.05697 -1.4821,-12.77317 -4.446,-17.14862 -2.964,-4.37528 -7.5511,-6.56296 -13.7612,-6.56305"
           style="line-height:125%;letter-spacing:0.29631141;fill:#404040;font-family:Signika Negative;-inkscape-font-specification:Signika Negative Semi-Bold"
           id="path3094"
           inkscape:connector-curvature="0" />
        <path
           d="m 1670.4562,595.03597 0,-47.21163 c 0,-8.46837 -1.3408,-15.03141 -4.0225,-19.68916 4.2342,-3.8107 9.2447,-5.7161 15.0315,-5.71621 5.9279,1.1e-4 9.9504,1.34095 12.0675,4.02252 2.1171,2.68178 3.1757,6.84543 3.1757,12.49097 l 0,50.3873 c 0,6.49252 0.8468,11.15017 2.5406,13.97295 1.6936,2.68171 4.7281,4.02254 9.1035,4.02252 8.045,2e-5 15.4549,-3.5285 22.2297,-10.58557 l 0,-72.82871 c 3.9519,-0.7056 8.3273,-1.05845 13.1261,-1.05855 4.7987,10e-5 9.1741,0.35295 13.1261,1.05855 l 0,75.15754 c -10e-5,9.03304 1.9759,15.10209 5.928,18.20717 -1.2704,5.50451 -4.2344,9.95044 -8.8919,13.33782 -10.0211,-1.27027 -16.8664,-6.28076 -20.536,-15.03151 -10.8679,10.16215 -22.2298,15.24322 -34.0855,15.24322 -9.4565,0 -16.6547,-3.24624 -21.5946,-9.73872 -4.7988,-6.63361 -7.1982,-15.31377 -7.1982,-26.0405"
           style="line-height:125%;letter-spacing:0.29631141;fill:#404040;font-family:Signika Negative;-inkscape-font-specification:Signika Negative Semi-Bold"
           id="path3096"
           inkscape:connector-curvature="0" />
      </g>
      <g
         transform="matrix(1.0476191,0,0,1.0476191,-356.04604,209.42878)"
         style="font-size:40px;font-style:normal;font-weight:normal;line-height:125%;letter-spacing:0px;word-spacing:0px;fill:#000000;fill-opacity:1;stroke:none;font-family:Sans"
         id="text3051" />
    </g>
  </g>
</svg>
