<?xml version="1.0" encoding="UTF-8" standalone="no"?>
<!-- Created with Inkscape (http://www.inkscape.org/) -->

<svg
   xmlns:dc="http://purl.org/dc/elements/1.1/"
   xmlns:cc="http://creativecommons.org/ns#"
   xmlns:rdf="http://www.w3.org/1999/02/22-rdf-syntax-ns#"
   xmlns:svg="http://www.w3.org/2000/svg"
   xmlns="http://www.w3.org/2000/svg"
   xmlns:sodipodi="http://sodipodi.sourceforge.net/DTD/sodipodi-0.dtd"
   xmlns:inkscape="http://www.inkscape.org/namespaces/inkscape"
   inkscape:version="0.48.4 r9939"
   version="1.1"
   id="svg3148"
   height="850"
   width="850"
   sodipodi:docname="responsa-eu.svg"
   inkscape:export-filename="/home/tadeusz/Dokumenty/Radzimy/img/radzimy.co.png"
   inkscape:export-xdpi="13.499999"
   inkscape:export-ydpi="13.499999">
  <sodipodi:namedview
     id="base"
     pagecolor="#ffffff"
     bordercolor="#666666"
     borderopacity="1.0"
     inkscape:pageopacity="0.0"
     inkscape:pageshadow="2"
     inkscape:zoom="0.1767767"
     inkscape:cx="566.92473"
     inkscape:cy="309.23552"
     inkscape:document-units="px"
     inkscape:current-layer="layer1"
     showgrid="false"
     showborder="true"
     inkscape:window-width="1280"
     inkscape:window-height="734"
     inkscape:window-x="0"
     inkscape:window-y="27"
     inkscape:window-maximized="1"
     showguides="true"
     inkscape:guide-bbox="true"
     fit-margin-top="0"
     fit-margin-left="0"
     fit-margin-right="0"
     fit-margin-bottom="0"
     borderlayer="false">
    <sodipodi:guide
       orientation="1,0"
       position="2000,1320"
       id="guide3143" />
  </sodipodi:namedview>
  <defs
     id="defs3150" />
  <metadata
     id="metadata3153">
    <rdf:RDF>
      <cc:Work
         rdf:about="">
        <dc:format>image/svg+xml</dc:format>
        <dc:type
           rdf:resource="http://purl.org/dc/dcmitype/StillImage" />
        <dc:title></dc:title>
      </cc:Work>
    </rdf:RDF>
  </metadata>
  <g
     id="layer1"
     inkscape:groupmode="layer"
     inkscape:label="Layer 1"
     transform="translate(-1.3140267e-8,-202.36223)">
    <g
       inkscape:export-ydpi="11.98811"
       inkscape:export-xdpi="11.98811"
       inkscape:export-filename="/home/tadeusz/Dokumenty/Radzimy/logo.png"
       transform="matrix(1.0625,0,0,1.0656099,-21.249991,784.68653)"
       id="g2995">
      <path
         style="font-size:medium;font-style:normal;font-variant:normal;font-weight:normal;font-stretch:normal;text-indent:0;text-align:start;text-decoration:none;line-height:normal;letter-spacing:normal;word-spacing:normal;text-transform:none;direction:ltr;block-progression:tb;writing-mode:lr-tb;text-anchor:start;baseline-shift:baseline;color:#000000;fill:#404040;fill-opacity:1;stroke:none;stroke-width:30;marker:none;visibility:visible;display:inline;overflow:visible;enable-background:accumulate;font-family:Sans;-inkscape-font-specification:Sans"
         d="m 456.68387,-212.99718 -53.01953,0 c -29.16118,0 -53.01952,23.85835 -53.01952,53.01953 l 0,244.70551 c 0,29.1612 23.85834,53.0195 53.01952,53.0195 l 100.30377,0 c 6.69897,16.6754 28.72282,28.9823 54.95678,28.9823 26.30351,0 47.35381,-11.3416 56.86851,-28.9823 l 32.5765,0 c 26.1,0 47.9036,-19.1263 52.2038,-44.04697 l 107.1861,0 c 5.3425,0.004 10.4466,-3.90985 11.8289,-9.07047 0.6911,-2.58031 0.5063,-5.38693 -0.5171,-7.85437 -1.0235,-2.46742 -2.8796,-4.58081 -5.1942,-5.91434 l -112.488,-64.94892 0,-165.88994 c 0,-29.16118 -23.8584,-53.01953 -53.0195,-53.01953 l -150.90178,0 0,24.47055 150.90178,0 c 16.0277,0 28.5489,12.52121 28.5489,28.54898 l 0,172.95071 c 0,4.27349 2.4168,8.46695 6.1177,10.60391 l 79.0449,45.65287 -72.9273,0 c -3.2031,3.2e-4 -6.3864,1.31905 -8.6513,3.58399 -2.2649,2.26493 -3.5837,5.44819 -3.584,8.65129 l 0,3.26274 c 0,16.02778 -12.5212,28.549 -28.5489,28.549 l -27.1216,0 c -0.7585,-20.27536 -11.6259,-36.08894 -38.745,-55.95092 20.54,-0.39645 30.8102,-3.18752 39.1784,-10.32352 9.1289,-7.53244 14.4529,-19.80834 14.4529,-34.08034 0,-12.28977 -2.6513,-23.39582 -7.5961,-32.11759 -11.4111,-20.21867 -30.4386,-39.64301 -55.54304,-56.69011 -26.2456,-18.23645 -39.56073,-33.70318 -39.56073,-47.18228 0,-16.25423 12.94413,-27.35094 31.58231,-27.35094 10.65038,0 20.51956,3.97439 20.51956,8.33528 0,1.58577 -2.261,4.34804 -5.68429,7.51959 -6.84667,5.55023 -10.27253,11.5027 -10.27253,17.05292 0,10.704 11.78292,22.60977 22.81372,22.60977 12.9326,0 24.7254,-12.30553 24.7254,-25.3882 0,-21.01155 -25.4918,-39.25484 -55.16068,-39.25484 -33.09227,0 -56.66462,21.41133 -56.66462,51.5411 0,19.02933 6.8409,29.34415 38.03131,57.88814 l -7.2392,0 c -30.0493,0 -46.77444,17.03573 -46.77444,48.35483 0,26.56177 10.27153,40.04444 63.90382,85.23909 l 21.69213,18.25095 c 10.65038,9.11822 14.07058,15.44347 14.07058,27.73327 0,18.6329 -9.89325,28.1666 -30.05291,28.1666 -13.31298,0 -25.87251,-5.5493 -25.87251,-11.496 0,-1.5858 1.52572,-3.1896 5.7098,-5.9647 8.74853,-5.5502 11.77645,-10.302 11.77645,-16.6451 0,-11.89332 -11.38698,-22.20191 -24.69996,-22.20191 -8.63453,0 -16.15147,4.67102 -20.36664,11.95491 l -101.80769,0 c -16.02777,0 -28.54897,-12.52122 -28.54897,-28.549 l 0,-244.70551 c 0,-16.02777 12.5212,-28.54898 28.54897,-28.54898 l 53.01953,0 z m 81.69595,172.00758 c 11.41113,0 27.37976,10.71023 52.48428,35.68622 12.5522,12.28977 16.3646,19.80772 16.3646,30.51172 0,13.4791 -8.7515,22.99212 -20.1627,22.99212 -11.4111,0 -19.3914,-5.14135 -42.59403,-26.1529 -22.82225,-20.6151 -26.63721,-26.56324 -26.63721,-40.83523 0,-12.68622 8.75357,-22.20193 20.54506,-22.20193 z"
         id="path4238"
         inkscape:connector-curvature="0"
         sodipodi:nodetypes="csssscscsccssccssccssccccscsscccsccssscssssscssccssscsscssssccscsscss" />
      <path
         style="font-size:medium;font-style:normal;font-variant:normal;font-weight:normal;font-stretch:normal;text-indent:0;text-align:start;text-decoration:none;line-height:normal;letter-spacing:normal;word-spacing:normal;text-transform:none;direction:ltr;block-progression:tb;writing-mode:lr-tb;text-anchor:start;baseline-shift:baseline;color:#000000;fill:#7f7f7f;fill-opacity:1;stroke:none;stroke-width:30;marker:none;visibility:visible;display:inline;overflow:visible;enable-background:accumulate;font-family:Sans;-inkscape-font-specification:Sans"
         d="m 279.06846,-465.4262 c -34.4315,0 -60.60244,16.08803 -68.79793,40.35091 l -18.68429,0 c -29.16118,0 -53.01953,23.85835 -53.01953,53.01953 l 0,165.91543 -112.48806,64.94892 c -2.30222,1.33915 -4.14552,3.45157 -5.16052,5.91395 -1.01501,2.46239 -1.1957,5.26013 -0.50587,7.83262 1.37966,5.14498 6.4573,9.05193 11.78403,9.06712 l 107.18611,0 c 4.30014,24.92062 26.10379,44.047 52.20384,44.047 l 150.90173,0 0,-24.47056 -150.90173,0 c -16.02777,0 -28.54897,-12.5212 -28.54897,-28.54897 l 0,-3.26274 c -3.3e-4,-3.2031 -1.31906,-6.38636 -3.58399,-8.65129 -2.26494,-2.26493 -5.44819,-3.58367 -8.65129,-3.58399 l -72.92734,0 79.04498,-45.65287 c 3.70082,-2.13695 6.12013,-6.33042 6.11764,-10.6039 l 0,-172.95072 c 0,-16.02777 12.5212,-28.54897 28.54897,-28.54897 l 16.77252,0 c 2.74585,13.3268 12.55055,22.38035 25.08231,22.38035 14.4541,0 23.96075,-10.29782 23.96075,-25.3627 0,-7.92889 -1.89447,-12.68125 -8.36077,-20.2137 -4.56445,-5.15377 -5.70979,-7.53162 -5.70979,-11.49606 0,-9.51466 9.50269,-15.88037 23.19604,-15.88037 20.15965,0 31.93917,19.03267 31.93917,51.5411 0,20.6151 -3.78695,34.50663 -16.3392,59.08619 -9.1289,18.23644 -12.18429,27.33871 -12.18429,38.43915 0,4.36089 0.004,6.35762 0.7647,18.25095 l 11.41959,0 c 0,-28.94043 3.03072,-34.49938 26.99408,-49.9607 34.61375,-22.20089 46.03522,-38.46093 46.03522,-65.81559 0,-0.32698 -0.0215,-0.64348 -0.0254,-0.96862 l 81.16066,0 c 16.02777,0 28.54897,12.5212 28.54897,28.54897 0,81.5685 0,163.13701 0,244.70551 0,16.02777 -12.5212,28.54897 -28.54897,28.54897 l -53.01957,0 0,24.47056 53.01957,0 c 29.16118,0 53.01952,-23.85835 53.01952,-53.01953 0,-81.5685 0,-163.13701 0,-244.70551 0,-29.16118 -23.85834,-53.01953 -53.01952,-53.01953 l -85.92732,0 C 340.09826,-450.08776 314.0393,-465.4262 279.0685,-465.4262 z m -2.26863,211.28791 c -17.49706,0 -32.34701,15.47564 -32.34701,33.31563 0,19.02933 14.08921,33.69799 32.34701,33.69799 17.87744,0 31.93917,-14.68275 31.93917,-33.31563 0,-18.23645 -14.4421,-33.69799 -31.93917,-33.69799 z"
         id="path4230"
         inkscape:connector-curvature="0"
         sodipodi:nodetypes="scssccssccsccsscsccccsscsscssscscccscsccsccsccscssssss" />
      <path
         style="font-size:medium;font-style:normal;font-variant:normal;font-weight:normal;font-stretch:normal;text-indent:0;text-align:start;text-decoration:none;line-height:normal;letter-spacing:normal;word-spacing:normal;text-transform:none;direction:ltr;block-progression:tb;writing-mode:lr-tb;text-anchor:start;baseline-shift:baseline;color:#000000;fill:#999999;fill-opacity:1;stroke:none;stroke-width:30;marker:none;visibility:visible;display:inline;overflow:visible;enable-background:accumulate;font-family:Sans;-inkscape-font-specification:Sans"
         d="m 421.78785,-523.00847 c -1.44283,0.004 -2.89004,0.004 -4.33333,0.0255 -88.11098,-0.18149 -174.79377,33.49169 -241.59571,90.28614 8.56731,-2.26361 17.59133,-3.02516 26.30585,-2.3451 2.30375,1.30937 1.97173,-0.99547 2.59999,-2.52352 14.64134,-25.61522 45.10233,-38.18334 73.81949,-37.69994 6.837,-0.18363 13.81194,0.35979 20.67252,1.60588 38.39315,-14.29503 79.27042,-21.88116 120.36452,-21.71762 121.25157,-1.05045 240.41132,66.92766 300.47792,172.13503 51.833,88.08952 62.3971,200.18121 25.949,296.09367 -4.6039,12.46461 -9.9456,24.63749 -15.9568,36.47641 l 23.9353,13.86665 c 32.8364,-64.13776 47.3409,-137.68792 39.2548,-209.65656 -9.4243,-91.87089 -53.9581,-180.21361 -123.2704,-241.06041 -67.517,-60.34575 -157.3252,-95.72831 -248.22315,-95.48613 z m -290.99563,135.86254 c -12.25582,14.76171 -23.36082,30.49003 -33.08622,47.10581 -31.9758,53.20973 -50.0022,114.62772 -52.7391,176.64679 9.5428,-5.68978 19.1523,-11.26084 28.8038,-16.77253 1.118,-11.78859 2.872,-23.53231 5.251,-35.15092 8.5121,-43.50655 25.6203,-85.24322 49.75679,-122.37825 l 0,-17.46075 c -0.98241,-10.59076 -0.58323,-21.61648 2.01373,-31.99015 z M 74.5354,-108.69146 c -9.3192,0.0409 -18.6464,0.19795 -27.9627,0.15294 2.14,20.62788 6.0304,41.0706 11.7255,61.04893 25.2936,91.66632 86.59421,172.97705 168.54092,221.50945 78.03896,47.16064 174.30436,64.81044 264.20548,46.77454 57.57767,-11.0197 112.2972,-35.94804 158.5998,-71.65294 -9.1883,0.6412 -18.5482,0.2472 -27.4529,-0.1274 -12.9905,18.2631 -35.3477,27.877 -57.40387,29.0588 -6.78848,0.4029 -13.7829,0.097 -20.64703,-1.0197 -77.18597,29.42404 -165.23257,30.74854 -242.81924,1.9883 C 224.20061,151.25846 157.66334,95.3683 117.6138,23.78089 94.4712,-16.8169 79.848,-62.22287 74.5354,-108.69146 z M 705.9011,49.9083 c -1.7865,2.58506 -3.6,5.1618 -5.4549,7.69803 6.4255,-0.0697 12.9007,0.24987 19.2196,0.2549 -4.5411,-2.71685 -9.151,-5.32229 -13.7647,-7.95293 z"
         id="path24"
         inkscape:connector-curvature="0" />
    </g>
  </g>
</svg>
